<svg width="109" height="72" viewBox="0 0 109 72" fill="none" xmlns="http://www.w3.org/2000/svg">
<g clip-path="url(#clip0_34_20)">
<path d="M9.48677 62.3782C12.6378 62.3782 14.2217 63.7307 14.2217 67.0396C14.2217 70.021 12.7618 71.8092 9.75734 71.8092H7.3363V62.3782H9.48677ZM8.92026 63.5941V70.5933H9.86725C12.0459 70.5933 12.5589 68.9816 12.5589 67.0396C12.5589 64.9609 12.0177 63.5941 9.78552 63.5941H8.92026Z" fill="#C23E54"/>
<path d="M31.727 62.3782L31.5522 63.5941H28.0489V66.4103H31.1069V67.6262H28.0489V70.5791H31.8115V71.8092H26.4678V62.3782H31.7298H31.727Z" fill="#C23E54"/>
<path d="M49.5846 63.3207L48.7729 64.249C48.0824 63.6738 47.4342 63.4432 46.6619 63.4432C45.8897 63.4432 45.1202 63.745 45.1202 64.6448C45.1202 65.015 45.202 65.2741 45.512 65.5048C45.8108 65.7639 46.2955 65.9689 47.096 66.2167C48.6123 66.695 49.8693 67.3243 49.8693 69.1411C49.8693 71.1372 48.1782 71.9972 46.4054 71.9972C45.202 71.9972 43.9844 71.6013 43.1163 70.7272L43.9562 69.7989C44.6608 70.3598 45.3908 70.7414 46.3773 70.7414C47.3102 70.7414 48.2177 70.2772 48.2177 69.2237C48.2177 68.1017 47.2031 67.7885 46.2955 67.5294C44.875 67.0908 43.494 66.4502 43.494 64.7416C43.494 63.0331 45.0357 62.1845 46.5774 62.1845C47.902 62.1845 48.7814 62.5803 49.5818 63.3179L49.5846 63.3207Z" fill="#C23E54"/>
<path d="M63.5189 62.3782V71.8092H61.9349V62.3782H63.5189Z" fill="#C23E54"/>
<path d="M82.8392 63.2666L81.974 64.1835C81.3257 63.6653 80.7959 63.4318 79.9729 63.4318C77.9972 63.4318 77.4166 65.4279 77.4166 67.0823C77.4166 68.7367 77.7153 70.7471 79.7699 70.7471C80.3505 70.7471 80.8917 70.6389 81.3793 70.3513V67.7401H79.8629L79.6995 66.5242H82.9322V71.1173C82.0247 71.664 80.996 72.0057 79.7136 72.0057C76.7909 72.0057 75.748 69.722 75.748 67.0852C75.748 65.4991 76.2215 64.2689 77.0051 63.4488C77.7632 62.6145 78.8032 62.1902 79.9137 62.1902C81.213 62.1902 82.0501 62.6003 82.8364 63.2695L82.8392 63.2666Z" fill="#C23E54"/>
<path d="M102.036 62.3782V71.8092H99.9668L96.5171 64.0184C96.6805 65.2485 96.7341 66.5327 96.7341 67.7629V71.8092H95.2854V62.3782H97.3006L100.79 70.169C100.655 69.198 100.573 68.0647 100.573 67.0937V62.3782H102.033H102.036Z" fill="#C23E54"/>
<path d="M28.7226 55.4416C28.6127 56.3926 27.2712 56.8198 23.4409 56.3727C19.6107 55.9256 18.4326 55.2052 18.5819 53.9153C18.7651 52.3207 20.5689 53.8042 21.0537 49.5614L21.313 47.2862C21.4229 46.3351 21.127 45.9222 20.2955 45.7571L15.3576 45.1819C14.4839 45.0794 14.0668 45.4439 13.9541 46.4291L13.644 49.1457C13.2185 52.8788 15.2956 51.9875 15.1209 53.5138C14.9743 54.8037 13.6299 55.2308 9.7997 54.7866C5.96945 54.3424 4.79135 53.6191 4.94072 52.3292C5.12392 50.7346 6.92772 52.2182 7.40967 48.0066L8.70051 36.7048C9.18528 32.4619 7.08837 33.5241 7.31103 31.5906C7.46604 30.2323 11.5161 30.5342 12.5928 30.6594C13.6694 30.7847 17.6462 31.4197 17.4912 32.778C17.277 34.646 15.4563 33.2963 15.0307 37.0322L14.6305 40.529C14.5149 41.5484 14.8419 41.9642 15.7804 42.0724L20.5182 42.6248C21.4595 42.7359 21.871 42.4055 21.9866 41.3861L22.3389 38.2965C22.8237 34.0537 20.7268 35.1158 20.9494 33.1824C21.1044 31.8241 25.256 32.1373 26.3326 32.2626C27.4093 32.3879 31.2846 33.0115 31.1296 34.3698C30.9154 36.2378 29.0947 34.888 28.6691 38.624L27.2852 50.7431C26.8597 54.4763 28.934 53.585 28.7226 55.4501V55.4416Z" fill="#C23E54"/>
<path d="M54.3704 43.2598C54.9538 49.8974 51.6027 55.789 43.821 56.4895C36.2761 57.1672 32.0089 52.3036 31.3917 45.2901C30.7745 38.2766 34.1594 32.7609 41.8058 32.0718C49.4522 31.3827 53.7813 36.588 54.3676 43.257L54.3704 43.2598ZM40.5742 34.2417C34.244 35.5999 39.0212 55.5469 45.1936 54.3054C51.4336 53.0582 46.9438 32.9147 40.5742 34.2417Z" fill="#C23E54"/>
<path d="M73.313 44.5782C73.9866 44.5099 74.7025 44.8829 74.8011 45.8681L75.4437 52.258C75.6664 54.4677 75.3056 54.9518 73.826 55.1027L59.4576 56.5749C56.5969 56.8682 55.664 56.3784 55.5569 55.2906C55.3765 53.4882 57.837 54.3026 57.4114 50.0512L56.3404 39.3758C55.9148 35.1272 54.0913 36.6193 53.8968 34.6802C53.801 33.7291 55.1905 33.003 58.8573 32.6271C62.524 32.2512 63.9953 32.684 64.0911 33.6351C64.2799 35.506 62.2478 34.5805 62.6227 38.3193L63.8966 50.9994C64.1024 53.0382 64.8859 53.7473 66.8052 53.5508C70.4044 53.1806 72.1264 51.3582 71.9968 46.0134C71.9799 45.1563 72.6084 44.6466 73.313 44.5725V44.5782Z" fill="#C23E54"/>
<path d="M103.143 39.1366L102.253 50.6862C101.962 54.4335 103.972 53.4597 103.851 55.0287C103.752 56.2901 102.461 56.7714 98.617 56.4667C94.7726 56.1648 93.5692 55.4871 93.6706 54.1915C93.7946 52.5912 95.6182 54.0036 95.9479 49.7436L96.6384 40.8195L91.2186 49.9544C90.8691 50.5438 90.2716 50.8058 89.6966 50.7602C89.0907 50.7118 88.5411 50.3616 88.2198 49.6838L83.8202 39.8769L83.1353 48.7328C82.8056 52.9898 85.686 52.1555 85.5366 54.0975C85.469 54.9831 83.2396 55.2878 81.0497 55.1141C78.8598 54.9404 76.6698 54.2883 76.7375 53.4027C76.8869 51.4607 79.6038 52.7393 79.9336 48.4793L80.7904 37.3739C81.1173 33.151 78.6399 34.0167 78.7752 32.2797C78.8654 31.1207 79.9871 30.6281 83.8315 30.93C85.4493 31.0581 87.0924 30.8787 87.8759 32.5844L92.1712 42.4169L96.9907 34.0566C98.0082 32.3196 99.3103 32.1487 101.131 32.2911C104.975 32.5929 105.976 33.2564 105.903 34.2103C105.753 36.1523 103.473 34.9108 103.149 39.1337L103.143 39.1366Z" fill="#C23E54"/>
<path d="M21.5644 12.6716C22.2267 12.5292 22.9792 12.8196 23.185 13.7878L24.5153 20.0695C24.9747 22.2421 24.7041 22.7547 23.216 23.0765L8.26701 26.3056C5.45704 26.9121 4.46777 26.4964 4.24229 25.4285C3.87308 23.6915 6.40967 24.2269 5.52468 20.0495L3.39395 9.99202C2.50896 5.81753 0.414865 7.35236 0.0400141 5.58403C-0.18546 4.51621 0.552969 3.76161 3.36576 3.15224L17.4861 0.099676C18.9404 -0.213553 19.4308 0.133846 19.8818 2.27235L21.2177 8.58819C21.4235 9.55635 20.8541 10.1344 20.1918 10.2768C19.4985 10.4277 18.7431 10.1344 18.5007 9.31431C16.9929 4.15457 14.8086 2.98423 11.6012 3.67618C9.38593 4.15457 8.84761 5.04015 9.27038 7.04482L10.1413 11.1538C10.3047 11.9227 10.626 12.1334 11.3532 11.9739L11.9817 11.8372C13.7009 11.4642 13.6474 10.3935 14.0617 9.08081C14.1829 8.67076 14.538 8.38316 14.9016 8.30628C15.3328 8.21231 15.7838 8.39455 15.8993 8.92989L17.2437 15.2799C17.3649 15.8466 17.0295 16.2338 16.6011 16.3278C16.2375 16.4075 15.8317 16.2851 15.2934 15.7013C14.6057 14.9069 14.2139 13.8732 12.4947 14.2434L11.8661 14.3801C11.139 14.5367 10.9389 14.8955 11.0995 15.6643L12.0747 20.2745C12.5003 22.2792 13.3571 22.8971 15.2426 22.4899L16.0684 22.3105C19.6084 21.5445 21.1191 19.5427 20.4145 14.2434C20.3045 13.3948 20.9049 12.8082 21.5672 12.6659L21.5644 12.6716Z" fill="#C23E54"/>
<path d="M52.4396 9.0153L51.2813 20.5393C50.9064 24.2781 52.9357 23.3527 52.7779 24.916C52.651 26.1746 51.3489 26.6245 47.513 26.2315C43.6772 25.8386 42.4906 25.1324 42.6202 23.8396C42.7809 22.2421 44.5734 23.6972 44.999 19.4487L45.8953 10.5416L40.264 19.5455C39.9005 20.1264 39.2973 20.3741 38.7252 20.3143C38.1192 20.2517 37.5781 19.8872 37.2737 19.2038L33.1024 9.29721L32.2146 18.136C31.7862 22.3845 34.6864 21.6185 34.4919 23.5548C34.4017 24.4376 32.1695 24.691 29.9824 24.466C27.7615 24.2382 25.6223 23.5377 25.7125 22.655C25.9069 20.7187 28.5929 22.057 29.0213 17.8085L30.1374 6.72588C30.5602 2.51153 28.0659 3.32023 28.2406 1.58608C28.3562 0.429978 29.492 -0.0370182 33.3279 0.355942C34.9428 0.521099 36.5888 0.38157 37.3329 2.10718L41.3999 12.0394L46.411 3.79577C47.4679 2.0844 48.7729 1.94202 50.5908 2.12996C54.4266 2.52292 55.4103 3.20917 55.3144 4.16025C55.12 6.09658 52.8709 4.80095 52.4453 9.01815L52.4396 9.0153Z" fill="#C23E54"/>
<path d="M81.2328 7.45201L81.9881 19.0102C82.2333 22.7604 84.0822 21.5075 84.1865 23.0764C84.2682 24.3379 83.0591 25.0014 79.2119 25.2577C75.3648 25.5139 74.0796 25.0185 73.995 23.7228C73.8907 22.1197 75.8975 23.253 75.6184 18.9931L75.035 10.0604L70.9652 19.8844C70.7003 20.5194 70.1479 20.8639 69.5729 20.9009C68.9641 20.9408 68.3723 20.6731 67.9579 20.0495L62.214 10.9801L62.7918 19.8445C63.0708 24.1073 65.8018 22.8629 65.9287 24.8049C65.9879 25.6905 63.8233 26.3141 61.6306 26.4622C59.4378 26.6102 57.1775 26.2799 57.1211 25.3915C56.9943 23.4495 59.8634 24.318 59.5872 20.0552L58.8629 8.94127C58.5867 4.71267 56.2586 5.93142 56.1459 4.19157C56.0698 3.03263 57.1126 2.38054 60.9598 2.12426C62.5804 2.01606 64.1784 1.60316 65.1987 3.17785L70.844 12.2871L74.4291 3.31738C75.1872 1.45224 76.4527 1.09345 78.2762 0.971009C82.1234 0.714731 83.2085 1.22444 83.2705 2.17837C83.3973 4.12323 80.965 3.22341 81.2412 7.44916L81.2328 7.45201Z" fill="#C23E54"/>
<path d="M103.456 26.5448C99.6118 25.7503 98.3689 25.0726 98.6141 23.8681C98.8987 22.4614 100.641 23.2416 100.235 20.6447L100.066 19.5996L92.1458 17.9594L91.7371 18.6087C90.3533 20.8326 92.2106 21.0433 91.9457 22.3503C91.6272 23.9222 89.1216 23.5093 87.6645 23.2074C86.2073 22.9056 84.4515 22.5411 84.7502 21.0689C85.049 19.5968 86.8218 20.9038 89.8121 16.5357L95.9225 7.68551C96.3565 7.07898 96.7032 6.38133 96.8328 5.74633C97.1682 3.75875 94.9952 2.89025 95.2545 1.6174C95.5194 0.31323 97.9151 0.250585 99.5385 0.586594C101.294 0.951079 102.723 1.90785 102.994 3.28891L106.565 20.246C107.602 25.1694 109.313 24.4062 108.952 26.1803C108.667 27.587 104.584 26.7754 103.459 26.5419L103.456 26.5448ZM93.6311 15.7554L99.4962 16.9685L97.8447 9.61614L93.6311 15.7554Z" fill="#C23E54"/>
</g>
<defs>
<clipPath id="clip0_34_20">
<rect width="109" height="72" fill="white"/>
</clipPath>
</defs>
</svg>
