<svg width="144" height="144" viewBox="0 0 144 144" fill="none" xmlns="http://www.w3.org/2000/svg">
<g clip-path="url(#clip0_25_221)">
<path d="M0.831075 119.004C1.05793 82.9325 1.28479 46.8637 1.51165 10.7949C1.53078 7.63905 1.76037 4.0381 4.26401 2.07444C5.69076 0.955048 7.58215 0.62867 9.39429 0.43716C16.651 -0.328884 23.9706 0.504593 31.2191 1.33807C33.3538 1.58353 35.5759 1.85866 37.3798 3.01312C41.3403 5.54861 41.6983 11.0323 41.6382 15.6906C41.1736 50.319 40.7089 84.9474 40.2443 119.573C40.1951 123.204 40.1377 126.894 39.0498 130.362C36.9972 136.903 31.118 142.101 24.3232 143.485C17.5284 144.869 10.0858 142.42 5.4229 137.349C0.762744 132.278 0.795543 125.057 0.831075 119.004Z" stroke="#9E9653" stroke-miterlimit="10"/>
<path d="M13.2561 129.086C12.3542 128.032 12.0399 126.61 11.8923 125.24C11.7091 123.535 11.7474 121.758 12.4307 120.18C13.5431 117.609 16.2299 115.964 19.0014 115.387C19.8706 115.206 20.7643 115.112 21.6472 115.219C22.325 115.3 22.981 115.497 23.6205 115.732C25.6322 116.471 27.5537 117.65 28.7344 119.419C29.8195 121.046 30.1994 123.09 29.9015 125.019C29.6036 126.948 28.6524 128.749 27.3241 130.19C26.9496 130.597 26.5451 130.977 26.0887 131.296C25.4217 131.76 24.6619 132.081 23.8911 132.339C22.4644 132.82 20.9502 133.106 19.4469 132.984C16.6836 132.76 14.661 130.732 13.2561 129.086Z" stroke="#9E9653" stroke-miterlimit="10"/>
<path d="M1.03857 96.5566C14.1745 96.0468 27.3213 95.7879 40.4682 95.7798" stroke="#9E9653" stroke-miterlimit="10"/>
<path d="M1.07129 64.4636C14.3384 64.4934 27.6055 64.5961 40.8699 64.7746" stroke="#9E9653" stroke-miterlimit="10"/>
<path d="M41.3046 32.8974C38.4566 32.6323 35.5921 32.6377 32.7304 32.6459C22.3004 32.6705 11.8704 32.6979 1.44043 32.7225" stroke="#9E9653" stroke-miterlimit="10"/>
<path d="M39.0032 130.511C53.8637 97.2903 68.7243 64.0672 83.5849 30.8468C85.0854 27.4886 86.6133 23.7339 85.4244 20.257C84.0605 16.2677 79.6846 14.2123 75.6941 12.7234C69.8859 10.5547 63.9712 8.6585 57.98 7.04819C56.7965 6.7299 54.3585 6.328 53.1367 6.25247C51.1114 6.1257 48.8537 7.85199 48.4082 8.60994C44.5762 15.1375 43.9148 21.7783 41.4658 28.9263" stroke="#9E9653" stroke-miterlimit="10"/>
<path d="M75.5901 48.4819C64.4084 42.8579 52.9617 37.5442 41.4165 32.689" stroke="#9E9653" stroke-miterlimit="10"/>
<path d="M62.6154 77.5376C55.6867 73.6103 48.4245 70.2602 40.9272 67.5332" stroke="#9E9653" stroke-miterlimit="10"/>
<path d="M49.6136 106.545C46.607 105.126 43.4748 103.64 40.4709 102.221" stroke="#9E9653" stroke-miterlimit="10"/>
<path d="M75.4673 48.9917C80.8982 43.0333 86.2198 38.7392 92.9736 34.2913C95.4827 32.6378 98.3362 31.041 101.329 31.4078C104.051 31.7423 106.287 33.6385 108.225 35.5536C113.538 40.8053 118.021 46.877 121.457 53.4828C121.954 54.4404 122.443 55.4519 122.462 56.5281C122.492 58.3056 121.268 59.8377 120.085 61.1783C110.614 71.9083 99.6782 81.2708 88.7836 90.5928C71.5888 105.307 54.0251 120.272 36.8303 134.986" stroke="#9E9653" stroke-miterlimit="10"/>
<path d="M103.423 77.8937C94.1789 68.0835 85.2221 58.1869 76.2954 48.0962" stroke="#9E9653" stroke-miterlimit="10"/>
<path d="M79.0559 98.7819C73.5649 91.9576 68.0875 85.5946 61.9678 79.3152" stroke="#9E9653" stroke-miterlimit="10"/>
<path d="M47.4734 111.459C49.9688 114.114 52.3331 116.889 54.5552 119.773" stroke="#9E9653" stroke-miterlimit="10"/>
<path d="M103.565 77.829C111.242 75.3852 118.901 72.8524 126.748 70.9966C128.254 70.6406 129.867 70.3007 131.315 70.8402C133.092 71.5037 134.128 73.2947 134.97 74.9752C138.476 81.9802 141.158 89.3897 142.934 97.0016C143.418 99.0705 143.809 101.352 142.803 103.23C142.002 104.727 140.458 105.674 138.944 106.469C133.914 109.115 128.47 110.885 123.055 112.633C91.6314 122.769 60.1063 132.596 28.4856 142.115" stroke="#9E9653" stroke-miterlimit="10"/>
<path d="M115.044 115.211C113.301 109.515 111.565 103.974 109.821 98.2775C109.441 97.034 109.061 95.7905 108.679 94.547C106.943 88.8772 105.235 83.3693 103.502 77.6968" stroke="#9E9653" stroke-miterlimit="10"/>
<path d="M84.3639 124.943C81.8521 117.019 79.1708 108.964 76.3938 101.126" stroke="#9E9653" stroke-miterlimit="10"/>
<path d="M53.6341 134.389C52.3905 130.775 51.2835 127.263 50.1328 123.616" stroke="#9E9653" stroke-miterlimit="10"/>
</g>
<defs>
<clipPath id="clip0_25_221">
<rect width="142.88" height="144" fill="white" transform="translate(0.688721)"/>
</clipPath>
</defs>
</svg>
