<svg width="186" height="144" viewBox="0 0 186 144" fill="none" xmlns="http://www.w3.org/2000/svg">
<g clip-path="url(#clip0_25_212)">
<path d="M24.6824 7.77294C25.1798 38.0385 25.1392 68.3132 24.5979 98.2593C70.0634 97.639 115.541 97.6758 160.794 98.5818C160.86 67.9569 160.672 37.3352 160.406 6.67042C152.453 5.91801 144.447 6.004 136.456 6.08999C99.1129 6.49844 61.7694 6.90383 24.6792 7.76987L24.6824 7.77294Z" stroke="#9E9653" stroke-miterlimit="10"/>
<path d="M84.0891 86.494C88.8791 63.6636 94.3792 40.9806 100.58 18.4788" stroke="#9E9653" stroke-miterlimit="10"/>
<path d="M110.905 71.455C118.97 64.757 127.036 58.0589 135.199 51.4991C127.311 45.6241 119.421 39.7491 111.534 33.8741" stroke="#9E9653" stroke-miterlimit="10"/>
<path d="M72.7853 33.6039C64.3974 39.5556 55.9907 45.5228 48.0878 52.2423C56.7416 58.0804 65.3923 63.9185 74.0461 69.7536" stroke="#9E9653" stroke-miterlimit="10"/>
<path d="M17.6586 1.52349C16.7701 35.6064 17.9996 69.6892 17.2394 103.935C66.9974 104.279 116.759 104.353 166.551 103.987C166.782 79.0253 167.014 54.0605 167.245 29.0987C167.333 19.6245 167.421 10.1471 167.289 0.15686C117.369 1.17032 67.4291 1.416 17.6586 1.52349Z" stroke="#9E9653" stroke-miterlimit="10"/>
<path d="M166.482 103.766C172.304 116.351 178.584 128.734 185.216 140.84C123.814 144.301 62.2387 144.82 0.710693 142.154C6.65199 129.468 12.0896 116.953 17.2393 103.938" stroke="#9E9653" stroke-miterlimit="10"/>
</g>
<defs>
<clipPath id="clip0_25_212">
<rect width="185" height="144" fill="white" transform="translate(0.4729)"/>
</clipPath>
</defs>
</svg>
