<svg width="149" height="144" viewBox="0 0 149 144" fill="none" xmlns="http://www.w3.org/2000/svg">
<g clip-path="url(#clip0_25_176)">
<path d="M82.7874 43.3768C79.3692 44.4908 76.7328 47.3751 75.4483 50.6695C74.1638 53.9639 74.1205 57.6232 74.8205 61.221C75.3184 59.6781 76.6679 58.5405 78.0991 57.7275C79.5304 56.9146 81.0963 56.3387 82.4722 55.4381C85.01 53.7743 86.7539 50.9966 87.1196 48.0293" stroke="#9E9653" stroke-miterlimit="10"/>
<path d="M140.915 120.713C129.525 120.638 118.133 120.669 107.359 120.713" stroke="#9E9653" stroke-miterlimit="10"/>
<path d="M146.767 119.031C145.348 120.247 143.032 120.558 140.896 120.712" stroke="#9E9653" stroke-miterlimit="10"/>
<path d="M148.049 113.597C148.054 115.512 147.989 117.614 146.753 119.05" stroke="#9E9653" stroke-miterlimit="10"/>
<path d="M148.122 30.6259C147.085 58.2655 147.98 85.9383 148.05 113.597" stroke="#9E9653" stroke-miterlimit="10"/>
<path d="M147.619 19.2756C148.733 23.0298 148.504 27.0281 148.122 30.6282" stroke="#9E9653" stroke-miterlimit="10"/>
<path d="M146.936 17.7542C147.273 18.2021 147.463 18.7401 147.621 19.2757" stroke="#9E9653" stroke-miterlimit="10"/>
<path d="M145.447 16.6071C146.014 16.8867 146.556 17.2493 146.933 17.7518" stroke="#9E9653" stroke-miterlimit="10"/>
<path d="M138.849 15.6448C141.093 15.6234 143.436 15.6234 145.447 16.6094" stroke="#9E9653" stroke-miterlimit="10"/>
<path d="M120.83 16.1573C126.836 15.9865 132.845 15.8156 138.851 15.6448" stroke="#9E9653" stroke-miterlimit="10"/>
<path d="M15.1294 15.5784C46.3112 15.7706 77.4954 15.9628 108.521 16.1574" stroke="#9E9653" stroke-miterlimit="10"/>
<path d="M6.8186 15.9937C9.44535 15.6852 12.0986 15.6117 15.1294 15.5808" stroke="#9E9653" stroke-miterlimit="10"/>
<path d="M1.80322 18.3632C2.76781 16.7207 4.90625 16.2159 6.81858 15.9907" stroke="#9E9653" stroke-miterlimit="10"/>
<path d="M1.16821 21.4893C1.20189 20.4156 1.25721 19.2922 1.80325 18.3632" stroke="#9E9653" stroke-miterlimit="10"/>
<path d="M1.22109 44.3272C0.939655 36.7193 0.922817 29.0996 1.17058 21.4917" stroke="#9E9653" stroke-miterlimit="10"/>
<path d="M1.36228 76.4794C1.31437 65.6885 1.26646 54.9 1.22095 44.3248" stroke="#9E9653" stroke-miterlimit="10"/>
<path d="M0.67749 108.214C1.45686 97.6582 1.41115 87.064 1.36304 76.4794" stroke="#9E9653" stroke-miterlimit="10"/>
<path d="M0.893981 113.514C0.908413 111.817 0.922846 110.12 0.67749 108.214" stroke="#9E9653" stroke-miterlimit="10"/>
<path d="M2.22166 118.773C0.937156 117.42 0.877019 115.367 0.893858 113.514" stroke="#9E9653" stroke-miterlimit="10"/>
<path d="M7.81435 120.359C5.81782 120.333 3.58557 120.212 2.22168 118.773" stroke="#9E9653" stroke-miterlimit="10"/>
<path d="M25.5667 120.582C19.6493 120.506 13.7319 120.432 7.81445 120.356" stroke="#9E9653" stroke-miterlimit="10"/>
<path d="M107.359 120.713C80.1679 120.658 52.9743 120.605 25.5642 120.584" stroke="#9E9653" stroke-miterlimit="10"/>
<path d="M0.915527 108.85C28.0682 108.612 55.2233 108.61 82.2942 108.838C104.23 108.898 126.165 108.869 148.1 108.751" stroke="#9E9653" stroke-miterlimit="10"/>
<path d="M9.00977 23.2933C39.6552 23.6896 70.303 23.4761 101.018 22.9089" stroke="#9E9653" stroke-miterlimit="10"/>
<path d="M114.039 23.5873C122.771 23.9836 131.505 23.77 140.258 23.2029" stroke="#9E9653" stroke-miterlimit="10"/>
<path d="M9.51271 63.2687C10.0299 49.9229 9.58488 36.5582 9.00757 23.293" stroke="#9E9653" stroke-miterlimit="10"/>
<path d="M9.06286 100.102C7.73986 87.9576 9.0364 75.593 9.51508 63.2687" stroke="#9E9653" stroke-miterlimit="10"/>
<path d="M140.258 100.223C96.4767 100.513 52.7697 100.392 9.06274 100.102" stroke="#9E9653" stroke-miterlimit="10"/>
<path d="M140.003 22.9114C140.088 48.681 140.172 74.453 140.256 100.223" stroke="#9E9653" stroke-miterlimit="10"/>
<path d="M84.3125 41.5306C96.6813 25.4379 112.05 11.5897 129.422 0.888892C130.134 0.450432 130.937 0.00012063 131.762 0.149434C131.281 2.5503 129.91 4.67624 128.474 6.67183C125.241 11.1631 121.549 15.3154 117.844 19.4393C109.062 29.2229 100.075 39.0184 89.1715 46.4461C87.798 44.5169 86.1815 42.7583 84.3101 41.5306H84.3125Z" stroke="#9E9653" stroke-miterlimit="10"/>
<path d="M111.773 143.881C88.2694 143.711 62.1197 143.543 38.6185 143.372C37.7549 140.018 40.2133 136.529 43.3572 134.987C46.5012 133.444 50.1526 133.38 53.6646 133.347C69.211 133.2 84.7598 133.053 100.306 132.906C102.959 132.88 107.823 134.619 109.75 136.418C112.196 138.7 111.775 143.881 111.775 143.881H111.773Z" stroke="#9E9653" stroke-miterlimit="10"/>
<path d="M50.0901 133.366C50.2242 129.265 50.2386 125.16 50.1356 121.058" stroke="#9E9653" stroke-miterlimit="10"/>
<path d="M99.4015 120.631C99.2913 124.722 99.2913 128.813 99.4015 132.903" stroke="#9E9653" stroke-miterlimit="10"/>
<path d="M84.2523 41.4736L82.6887 43.3649C84.1993 44.7893 85.6739 46.2517 87.1123 47.7472C87.1484 47.7851 87.1893 47.8254 87.2422 47.8301C87.2879 47.8349 87.3312 47.8088 87.3697 47.7875C87.9879 47.4154 88.5749 46.9959 89.1233 46.5313C87.8364 44.5594 86.1429 42.8459 84.2523 41.476V41.4736Z" stroke="#9E9653" stroke-miterlimit="10"/>
<path d="M78.7703 45.6971C76.5525 42.2013 73.8608 38.3286 69.8317 37.2147C68.7204 36.9066 67.4671 36.8426 66.4665 37.4066C65.1699 38.139 64.6383 39.7032 64.4002 41.1561C64.162 42.6089 64.0923 44.1495 63.3177 45.408C62.192 47.2376 59.9285 47.97 57.9175 48.7806C52.676 50.8899 47.7521 54.8574 46.5229 60.3038C46.1212 62.0837 46.1621 64.0532 47.1339 65.608C48.6277 68.0041 51.7812 68.7388 54.0038 70.5021C58.2615 73.8818 58.5453 80.499 62.6659 84.0399C65.829 86.7584 70.7434 86.929 74.4862 85.0567C75.9632 84.3172 77.2838 83.3076 78.7439 82.5373C83.5548 80.0037 89.4313 80.3308 94.6968 81.7362C96.9194 82.3287 99.183 83.1085 101.468 82.8241C103.299 82.5965 104.983 81.6936 106.45 80.5891C110.383 77.6289 113.055 72.9623 113.151 68.087C113.248 63.2118 110.59 58.275 106.229 55.9737C99.6352 52.4944 91.6804 55.4475 84.3895 53.8098" stroke="#9E9653" stroke-miterlimit="10"/>
</g>
<defs>
<clipPath id="clip0_25_176">
<rect width="148" height="144" fill="white" transform="translate(0.557129)"/>
</clipPath>
</defs>
</svg>
