<svg width="36" height="36" viewBox="0 0 36 36" fill="none" xmlns="http://www.w3.org/2000/svg">
<path d="M18 0C8.09999 0 0 8.11446 0 18.1084C0 27.1446 6.58799 34.6446 15.192 36V23.3494H10.62V18.1084H15.192V14.1145C15.192 9.57831 17.874 7.08434 21.996 7.08434C23.958 7.08434 26.01 7.42771 26.01 7.42771V11.8916H23.742C21.51 11.8916 20.808 13.2831 20.808 14.7108V18.1084H25.812L25.002 23.3494H20.808V36C25.0496 35.3274 28.9119 33.1545 31.6978 29.8736C34.4837 26.5927 36.0096 22.4198 36 18.1084C36 8.11446 27.9 0 18 0Z" fill="#C23E54"/>
</svg>
